<svg width="203" height="48" viewBox="0 0 203 48" fill="none" xmlns="http://www.w3.org/2000/svg">
<path d="M69.872 33L66.104 27.6C68.288 26.664 69.56 24.816 69.56 22.296C69.56 18.528 66.752 16.2 62.264 16.2H54.992V33H58.88V28.32H62.264H62.456L65.696 33H69.872ZM65.624 22.296C65.624 24.12 64.424 25.224 62.048 25.224H58.88V19.368H62.048C64.424 19.368 65.624 20.448 65.624 22.296ZM85.0244 26.592C85.0244 22.44 82.0964 19.896 78.3044 19.896C74.3684 19.896 71.4164 22.68 71.4164 26.544C71.4164 30.384 74.3204 33.192 78.7844 33.192C81.1124 33.192 82.9124 32.472 84.1124 31.104L82.1204 28.944C81.2324 29.784 80.2484 30.192 78.8804 30.192C76.9124 30.192 75.5444 29.208 75.1844 27.6H84.9524C84.9764 27.288 85.0244 26.88 85.0244 26.592ZM78.3284 22.728C80.0084 22.728 81.2324 23.784 81.4964 25.416H75.1364C75.4004 23.76 76.6244 22.728 78.3284 22.728ZM95.1491 19.896C93.4211 19.896 92.0291 20.448 91.0931 21.576V20.088H87.5171V37.656H91.2611V31.632C92.2211 32.688 93.5411 33.192 95.1491 33.192C98.7731 33.192 101.581 30.6 101.581 26.544C101.581 22.488 98.7731 19.896 95.1491 19.896ZM94.5011 30.12C92.6291 30.12 91.2131 28.776 91.2131 26.544C91.2131 24.312 92.6291 22.968 94.5011 22.968C96.3731 22.968 97.7891 24.312 97.7891 26.544C97.7891 28.776 96.3731 30.12 94.5011 30.12ZM116.735 26.592C116.735 22.44 113.807 19.896 110.015 19.896C106.079 19.896 103.127 22.68 103.127 26.544C103.127 30.384 106.031 33.192 110.495 33.192C112.823 33.192 114.623 32.472 115.823 31.104L113.831 28.944C112.943 29.784 111.959 30.192 110.591 30.192C108.623 30.192 107.255 29.208 106.895 27.6H116.663C116.687 27.288 116.735 26.88 116.735 26.592ZM110.039 22.728C111.719 22.728 112.943 23.784 113.207 25.416H106.847C107.111 23.76 108.335 22.728 110.039 22.728ZM131.876 26.592C131.876 22.44 128.948 19.896 125.156 19.896C121.22 19.896 118.268 22.68 118.268 26.544C118.268 30.384 121.172 33.192 125.636 33.192C127.964 33.192 129.764 32.472 130.964 31.104L128.972 28.944C128.084 29.784 127.1 30.192 125.732 30.192C123.764 30.192 122.396 29.208 122.036 27.6H131.804C131.828 27.288 131.876 26.88 131.876 26.592ZM125.18 22.728C126.86 22.728 128.084 23.784 128.348 25.416H121.988C122.252 23.76 123.476 22.728 125.18 22.728ZM138.473 19.824C138.473 18.552 139.073 17.952 140.177 17.952C140.753 17.952 141.281 18.12 141.689 18.408L142.673 15.696C141.977 15.216 140.873 15 139.817 15C136.601 15 134.825 16.896 134.825 19.8V20.376H132.833V23.256H134.825V33H138.569V23.256H141.785V20.376H138.473V19.824ZM153.1 20.088L149.452 28.848L145.828 20.088H141.964L147.556 33.096L147.508 33.216C147.004 34.368 146.428 34.824 145.396 34.824C144.652 34.824 143.86 34.512 143.284 34.008L141.916 36.672C142.756 37.416 144.196 37.848 145.516 37.848C147.844 37.848 149.62 36.912 150.868 33.792L156.7 20.088H153.1Z" fill="#32E0C4"/>
<path d="M24.7975 28.321C24.1528 28.321 23.6692 27.7788 23.6692 27.1825C23.6692 26.5861 24.1528 26.0439 24.7975 26.0439C24.7975 26.0439 24.7975 26.0439 24.8513 26.0439C25.2811 26.0439 28.1826 25.9355 29.7946 23.6042C31.4065 21.273 30.708 18.3453 29.3647 16.502C28.1826 14.8756 26.1946 14.0623 23.508 14.0623C23.508 14.0623 23.508 14.0623 23.4543 14.0623C17.1677 14.0623 13.3528 21.4898 13.299 21.5441C13.0304 22.0862 12.3319 22.3031 11.7946 22.032C11.2572 21.7609 11.0423 21.0561 11.311 20.514C11.4722 20.1345 15.8244 11.7853 23.4543 11.7853C23.4543 11.7853 23.4543 11.7853 23.508 11.7853C27.8065 11.7853 30.0095 13.6286 31.1378 15.1466C32.911 17.5863 33.8244 21.6525 31.5677 24.8512C29.311 28.1583 25.4423 28.321 24.7975 28.321Z" fill="#32E0C4"/>
<path d="M22.8627 42.1459C22.3791 42.1459 21.9493 42.1459 21.4657 42.0917C17.6508 41.8206 14.0508 40.5737 11.3105 38.5135C7.87165 35.8569 5.66866 31.7908 5.23881 27.0198C4.80896 22.6826 5.82986 18.1285 8.08657 14.5503C11.3105 9.34559 18.0806 4.68307 25.8716 6.09267C31.7821 7.17698 36.8328 11.5142 38.7672 17.261C40.6478 22.8452 40.003 30.4354 35.0597 34.1763C34.3075 34.7726 31.8896 36.3991 28.7731 36.3991C28.0746 36.3991 27.3761 36.3449 26.6239 36.128C22.8627 35.1521 19.9075 31.7366 19.1015 27.4535V27.3451V26.803C19.1015 26.1524 19.5851 25.6644 20.2299 25.6644C20.8746 25.6644 21.3582 26.1524 21.3582 26.803V27.1282C22.0567 30.5438 24.3672 33.2546 27.2149 33.9594C30.3313 34.7726 32.9642 32.9835 33.7164 32.4414C37.7463 29.3511 38.2299 22.7368 36.6179 18.0743C34.9522 13.0322 30.5463 9.23716 25.4418 8.3155C18.7254 7.06854 12.8149 11.1889 9.96717 15.743C6.09851 21.9236 6.25971 31.845 12.7075 36.6702C17.1672 40.0315 25.3343 41.3327 31.2448 37.646C31.7821 37.3207 32.4806 37.4834 32.803 38.0255C33.1254 38.5677 32.9642 39.2725 32.4269 39.5978C29.6866 41.2243 26.3552 42.1459 22.8627 42.1459Z" fill="#32E0C4"/>
<path d="M15.7709 35.9654C15.1262 35.9654 14.6426 35.4774 14.6426 34.8268V22.2489C14.6426 21.5983 15.1262 21.1104 15.7709 21.1104C16.4157 21.1104 16.8993 21.5983 16.8993 22.2489V34.8268C16.8456 35.4774 16.362 35.9654 15.7709 35.9654Z" fill="#32E0C4"/>
</svg>
